# xmcd
#
# Track frame offsets:
#	150
#	19632
#	46197
#	66730
#	83730
#	103065
#	129804
#	146550
#	169237
#	184752
#	199200
#	236070
#	255212
#	270495
#	290002
#
# Disc length: 4088 seconds
#
# Revision: 1
# Processed by: cddbd v1.5.1PL2 Copyright (c) Steve Scherf et al.
# Submitted via: audiograbber 1.83.01
#
DISCID=d50ff60f
DTITLE=Sound Choice - SC8621
DYEAR=1900
DGENRE=
TTITLE0=Doobie Brothers - What A Fool Believes
TTITLE1=Collins, Phil - In The Air Tonight
TTITLE2=Warwick, Dionne - Heartbreaker
TTITLE3=Elton John - Blue Eyes
TTITLE4=Lewis, Huey and The News - If This Is It
TTITLE5=Mike and The Mechanics - The Living Years
TTITLE6=Bowie, David - Sufferagette City
TTITLE7=Double - The Captain Of Her Heart
TTITLE8=Kool and The Gang - Jungle Boogie
TTITLE9=Cooper, Alice - I'm Eighteen
TTITLE10=Black Sabbath - War Pigs
TTITLE11=Rundgren, Todd - Hello It's Me
TTITLE12=Rundgren, Todd - I Saw The Light
TTITLE13=38 Special - If I 'd Been The One
TTITLE14=Joan Jett and The Blackhearts - Crimson And Clover
EXTD=
EXTT0=
EXTT1=
EXTT2=
EXTT3=
EXTT4=
EXTT5=
EXTT6=
EXTT7=
EXTT8=
EXTT9=
EXTT10=
EXTT11=
EXTT12=
EXTT13=
EXTT14=
PLAYORDER=
